<svg id="visual" viewBox="0 0 1920 1080" width="1920" height="1080" xmlns="http://www.w3.org/2000/svg" xmlns:xlink="http://www.w3.org/1999/xlink" version="1.1"><rect x="0" y="0" width="1920" height="1080" fill="#ffffff"></rect><defs><linearGradient id="grad1_0" x1="43.8%" y1="0%" x2="100%" y2="100%"><stop offset="14.444444444444446%" stop-color="#ffffff" stop-opacity="1"></stop><stop offset="85.55555555555554%" stop-color="#ffffff" stop-opacity="1"></stop></linearGradient></defs><defs><linearGradient id="grad2_0" x1="0%" y1="0%" x2="56.3%" y2="100%"><stop offset="14.444444444444446%" stop-color="#ffffff" stop-opacity="1"></stop><stop offset="85.55555555555554%" stop-color="#ffffff" stop-opacity="1"></stop></linearGradient></defs><g transform="translate(1920, 0)"><path d="M0 432C-63.5 400.5 -126.9 368.9 -194.5 336.9C-262.1 304.8 -333.8 272.2 -374.1 216C-414.4 159.8 -423.2 79.9 -432 0L0 0Z" fill="#000000"></path></g><g transform="translate(0, 1080)"><path d="M0 -432C86.2 -426.9 172.5 -421.7 216 -374.1C259.5 -326.5 260.4 -236.4 289.3 -167C318.1 -97.6 375.1 -48.8 432 0L0 0Z" fill="#000000"></path></g></svg>