<svg class="border shadow-md" viewBox="0 0 1351.68 675.84" style="width: 1351.68px; height: 675.84px;" xmlns="http://www.w3.org/2000/svg" preserveAspectRatio="none"><rect class="bg" id="bg" x="0" y="0" width="1351.68" height="675.84" fill="#ffffff"/><path d="M 0 -61.440000000000005 L 0 -61.44&#10;                L 71.00 -7.44&#10;                L 135.168 -61.44 L 135.168 -61.44&#10;                L 201.17 -10.44&#10;                L 270.336 -61.44 L 270.336 -61.44&#10;                L 315.39 -30.72&#10;                L 405.504 -61.44 L 405.504 -61.44&#10;                L 487.50 -16.44&#10;                L 540.672 -61.44 L 540.672 -61.44&#10;                L 585.73 -17.44&#10;                L 675.84 -61.44 L 675.84 -61.44&#10;                L 772.84 -20.44&#10;                L 811.008 -61.44 L 811.008 -61.44&#10;                L 875.01 -7.44&#10;                L 946.176 -61.44 L 946.176 -61.44&#10;                L 1033.18 -30.72&#10;                L 1081.344 -61.44 L 1081.344 -61.44&#10;                L 1136.34 -10.44&#10;                L 1216.5120000000002 -61.44 L 1216.5120000000002 -61.44&#10;                L 1271.51 -30.72&#10;                L 1351.6800000000003 -61.44 L 1351.68 -61.44&#10;                L 1431.68 -23.44&#10;                L 1486.848 -61.44  V 675.84 H 0 V -61.44 Z" fill="#9B8F91"/><path d="M 0 0 L 0 0.00&#10;                L 55.00 44.00&#10;                L 135.168 0.00 L 135.168 0.00&#10;                L 180.22 33.00&#10;                L 270.336 0.00 L 270.336 0.00&#10;                L 368.34 30.72&#10;                L 405.504 0.00 L 405.504 0.00&#10;                L 450.56 39.00&#10;                L 540.672 0.00 L 540.672 0.00&#10;                L 598.67 30.72&#10;                L 675.84 0.00 L 675.84 0.00&#10;                L 758.84 30.72&#10;                L 811.008 0.00 L 811.008 0.00&#10;                L 875.01 30.72&#10;                L 946.176 0.00 L 946.176 0.00&#10;                L 1035.18 30.72&#10;                L 1081.344 0.00 L 1081.344 0.00&#10;                L 1126.40 30.72&#10;                L 1216.5120000000002 0.00 L 1216.5120000000002 0.00&#10;                L 1261.57 31.00&#10;                L 1351.6800000000003 0.00 L 1351.68 0.00&#10;                L 1396.74 34.00&#10;                L 1486.848 0.00  V 675.84 H 0 V 0.00 Z" fill="#8e8385"/><path d="M 0 61.440000000000005 L 0 61.44&#10;                L 45.06 106.44&#10;                L 135.168 61.44 L 135.168 61.44&#10;                L 209.17 121.44&#10;                L 270.336 61.44 L 270.336 61.44&#10;                L 321.34 92.16&#10;                L 405.504 61.44 L 405.504 61.44&#10;                L 453.50 112.44&#10;                L 540.672 61.44 L 540.672 61.44&#10;                L 613.67 92.16&#10;                L 675.84 61.44 L 675.84 61.44&#10;                L 733.84 92.16&#10;                L 811.008 61.44 L 811.008 61.44&#10;                L 891.01 103.44&#10;                L 946.176 61.44 L 946.176 61.44&#10;                L 991.23 92.16&#10;                L 1081.344 61.44 L 1081.344 61.44&#10;                L 1126.40 92.16&#10;                L 1216.5120000000002 61.44 L 1216.5120000000002 61.44&#10;                L 1309.51 109.44&#10;                L 1351.6800000000003 61.44 L 1351.68 61.44&#10;                L 1429.68 92.16&#10;                L 1486.848 61.44  V 675.84 H 0 V 61.44 Z" fill="#817779"/><path d="M 0 122.88000000000001 L 0 122.88&#10;                L 70.00 154.88&#10;                L 135.168 122.88 L 135.168 122.88&#10;                L 180.22 155.88&#10;                L 270.336 122.88 L 270.336 122.88&#10;                L 315.39 158.88&#10;                L 405.504 122.88 L 405.504 122.88&#10;                L 480.50 153.60&#10;                L 540.672 122.88 L 540.672 122.88&#10;                L 585.73 153.60&#10;                L 675.84 122.88 L 675.84 122.88&#10;                L 720.90 153.60&#10;                L 811.008 122.88 L 811.008 122.88&#10;                L 891.01 153.60&#10;                L 946.176 122.88 L 946.176 122.88&#10;                L 1016.18 173.88&#10;                L 1081.344 122.88 L 1081.344 122.88&#10;                L 1126.40 175.88&#10;                L 1216.5120000000002 122.88 L 1216.5120000000002 122.88&#10;                L 1305.51 153.60&#10;                L 1351.6800000000003 122.88 L 1351.68 122.88&#10;                L 1396.74 153.60&#10;                L 1486.848 122.88  V 675.84 H 0 V 122.88 Z" fill="#746b6d"/><path d="M 0 184.32000000000002 L 0 184.32&#10;                L 81.00 218.32&#10;                L 135.168 184.32 L 135.168 184.32&#10;                L 199.17 228.32&#10;                L 270.336 184.32 L 270.336 184.32&#10;                L 344.34 232.32&#10;                L 405.504 184.32 L 405.504 184.32&#10;                L 450.56 215.04&#10;                L 540.672 184.32 L 540.672 184.32&#10;                L 632.67 242.32&#10;                L 675.84 184.32 L 675.84 184.32&#10;                L 775.84 242.32&#10;                L 811.008 184.32 L 811.008 184.32&#10;                L 902.01 232.32&#10;                L 946.176 184.32 L 946.176 184.32&#10;                L 1041.18 241.32&#10;                L 1081.344 184.32 L 1081.344 184.32&#10;                L 1139.34 232.32&#10;                L 1216.5120000000002 184.32 L 1216.5120000000002 184.32&#10;                L 1261.57 215.04&#10;                L 1351.6800000000003 184.32 L 1351.68 184.32&#10;                L 1446.68 237.32&#10;                L 1486.848 184.32  V 675.84 H 0 V 184.32 Z" fill="#675f61"/><path d="M 0 245.76000000000002 L 0 245.76&#10;                L 45.06 278.76&#10;                L 135.168 245.76 L 135.168 245.76&#10;                L 181.17 276.48&#10;                L 270.336 245.76 L 270.336 245.76&#10;                L 315.39 276.48&#10;                L 405.504 245.76 L 405.504 245.76&#10;                L 496.50 276.48&#10;                L 540.672 245.76 L 540.672 245.76&#10;                L 585.73 279.76&#10;                L 675.84 245.76 L 675.84 245.76&#10;                L 720.90 276.48&#10;                L 811.008 245.76 L 811.008 245.76&#10;                L 900.01 290.76&#10;                L 946.176 245.76 L 946.176 245.76&#10;                L 991.23 289.76&#10;                L 1081.344 245.76 L 1081.344 245.76&#10;                L 1151.34 276.48&#10;                L 1216.5120000000002 245.76 L 1216.5120000000002 245.76&#10;                L 1282.51 276.48&#10;                L 1351.6800000000003 245.76 L 1351.68 245.76&#10;                L 1396.74 276.48&#10;                L 1486.848 245.76  V 675.84 H 0 V 245.76 Z" fill="#5a5355"/><path d="M 0 307.20000000000005 L 0 307.20&#10;                L 99.00 361.20&#10;                L 135.168 307.20 L 135.168 307.20&#10;                L 214.17 340.20&#10;                L 270.336 307.20 L 270.336 307.20&#10;                L 342.34 360.20&#10;                L 405.504 307.20 L 405.504 307.20&#10;                L 483.50 365.20&#10;                L 540.672 307.20 L 540.672 307.20&#10;                L 585.73 337.92&#10;                L 675.84 307.20 L 675.84 307.20&#10;                L 733.84 358.20&#10;                L 811.008 307.20 L 811.008 307.20&#10;                L 856.06 344.20&#10;                L 946.176 307.20 L 946.176 307.20&#10;                L 1002.18 337.92&#10;                L 1081.344 307.20 L 1081.344 307.20&#10;                L 1164.34 365.20&#10;                L 1216.5120000000002 307.20 L 1216.5120000000002 307.20&#10;                L 1261.57 337.92&#10;                L 1351.6800000000003 307.20 L 1351.68 307.20&#10;                L 1449.68 346.20&#10;                L 1486.848 307.20  V 675.84 H 0 V 307.20 Z" fill="#4d4749"/><path d="M 0 368.64000000000004 L 0 368.64&#10;                L 45.06 409.64&#10;                L 135.168 368.64 L 135.168 368.64&#10;                L 180.22 409.64&#10;                L 270.336 368.64 L 270.336 368.64&#10;                L 354.34 418.64&#10;                L 405.504 368.64 L 405.504 368.64&#10;                L 472.50 399.36&#10;                L 540.672 368.64 L 540.672 368.64&#10;                L 585.73 399.36&#10;                L 675.84 368.64 L 675.84 368.64&#10;                L 728.84 399.36&#10;                L 811.008 368.64 L 811.008 368.64&#10;                L 869.01 404.64&#10;                L 946.176 368.64 L 946.176 368.64&#10;                L 1022.18 408.64&#10;                L 1081.344 368.64 L 1081.344 368.64&#10;                L 1159.34 399.36&#10;                L 1216.5120000000002 368.64 L 1216.5120000000002 368.64&#10;                L 1261.57 407.64&#10;                L 1351.6800000000003 368.64 L 1351.68 368.64&#10;                L 1396.74 399.36&#10;                L 1486.848 368.64  V 675.84 H 0 V 368.64 Z" fill="#403b3d"/><path d="M 0 430.08000000000004 L 0 430.08&#10;                L 71.00 463.08&#10;                L 135.168 430.08 L 135.168 430.08&#10;                L 180.22 461.08&#10;                L 270.336 430.08 L 270.336 430.08&#10;                L 342.34 460.80&#10;                L 405.504 430.08 L 405.504 430.08&#10;                L 466.50 482.08&#10;                L 540.672 430.08 L 540.672 430.08&#10;                L 605.67 463.08&#10;                L 675.84 430.08 L 675.84 430.08&#10;                L 733.84 460.80&#10;                L 811.008 430.08 L 811.008 430.08&#10;                L 856.06 473.08&#10;                L 946.176 430.08 L 946.176 430.08&#10;                L 1023.18 460.80&#10;                L 1081.344 430.08 L 1081.344 430.08&#10;                L 1126.40 460.80&#10;                L 1216.5120000000002 430.08 L 1216.5120000000002 430.08&#10;                L 1280.51 472.08&#10;                L 1351.6800000000003 430.08 L 1351.68 430.08&#10;                L 1426.68 460.80&#10;                L 1486.848 430.08  V 675.84 H 0 V 430.08 Z" fill="#332f31"/><path d="M 0 491.52000000000004 L 0 491.52&#10;                L 45.06 522.24&#10;                L 135.168 491.52 L 135.168 491.52&#10;                L 223.17 522.24&#10;                L 270.336 491.52 L 270.336 491.52&#10;                L 315.39 522.24&#10;                L 405.504 491.52 L 405.504 491.52&#10;                L 468.50 522.24&#10;                L 540.672 491.52 L 540.672 491.52&#10;                L 604.67 546.52&#10;                L 675.84 491.52 L 675.84 491.52&#10;                L 755.84 522.24&#10;                L 811.008 491.52 L 811.008 491.52&#10;                L 856.06 538.52&#10;                L 946.176 491.52 L 946.176 491.52&#10;                L 991.23 549.52&#10;                L 1081.344 491.52 L 1081.344 491.52&#10;                L 1139.34 522.24&#10;                L 1216.5120000000002 491.52 L 1216.5120000000002 491.52&#10;                L 1274.51 550.52&#10;                L 1351.6800000000003 491.52 L 1351.68 491.52&#10;                L 1396.74 522.24&#10;                L 1486.848 491.52  V 675.84 H 0 V 491.52 Z" fill="#262325"/><path d="M 0 552.96 L 0 552.96&#10;                L 45.06 583.68&#10;                L 135.168 552.96 L 135.168 552.96&#10;                L 230.17 583.68&#10;                L 270.336 552.96 L 270.336 552.96&#10;                L 364.34 583.68&#10;                L 405.504 552.96 L 405.504 552.96&#10;                L 450.56 609.96&#10;                L 540.672 552.96 L 540.672 552.96&#10;                L 618.67 583.68&#10;                L 675.84 552.96 L 675.84 552.96&#10;                L 720.90 583.68&#10;                L 811.008 552.96 L 811.008 552.96&#10;                L 876.01 597.96&#10;                L 946.176 552.96 L 946.176 552.96&#10;                L 997.18 612.96&#10;                L 1081.344 552.96 L 1081.344 552.96&#10;                L 1126.40 583.68&#10;                L 1216.5120000000002 552.96 L 1216.5120000000002 552.96&#10;                L 1277.51 583.68&#10;                L 1351.6800000000003 552.96 L 1351.68 552.96&#10;                L 1426.68 583.68&#10;                L 1486.848 552.96  V 675.84 H 0 V 552.96 Z" fill="#191719"/><path d="M 0 614.4000000000001 L 0 614.40&#10;                L 45.06 645.12&#10;                L 135.168 614.40 L 135.168 614.40&#10;                L 180.22 645.12&#10;                L 270.336 614.40 L 270.336 614.40&#10;                L 346.34 667.40&#10;                L 405.504 614.40 L 405.504 614.40&#10;                L 450.56 645.12&#10;                L 540.672 614.40 L 540.672 614.40&#10;                L 588.67 651.40&#10;                L 675.84 614.40 L 675.84 614.40&#10;                L 746.84 645.12&#10;                L 811.008 614.40 L 811.008 614.40&#10;                L 856.06 659.40&#10;                L 946.176 614.40 L 946.176 614.40&#10;                L 991.23 645.12&#10;                L 1081.344 614.40 L 1081.344 614.40&#10;                L 1166.34 645.12&#10;                L 1216.5120000000002 614.40 L 1216.5120000000002 614.40&#10;                L 1265.51 662.40&#10;                L 1351.6800000000003 614.40 L 1351.68 614.40&#10;                L 1405.68 645.12&#10;                L 1486.848 614.40  V 675.84 H 0 V 614.40 Z" fill="#0c0b0d"/></svg>