<svg viewBox="0 0 100 100" xmlns="http://www.w3.org/2000/svg"><path d="M84,67Q70,84,49.5,85.5Q29,87,23.5,68.5Q18,50,23.5,31.5Q29,13,50,13Q71,13,84.5,31.5Q98,50,84,67Z" stroke="none" stroke-width="0" fill="#ededee"/><path d="M78.5,65Q68,80,50,80.5Q32,81,23.5,65.5Q15,50,21,30Q27,10,48.5,12.5Q70,15,79.5,32.5Q89,50,78.5,65Z" stroke="none" stroke-width="0" fill="#dddddf"/><path d="M82,66.5Q69,83,51.5,80.5Q34,78,22,64Q10,50,20.5,33Q31,16,50,17Q69,18,82,34Q95,50,82,66.5Z" stroke="none" stroke-width="0" fill="#cdcdd0"/><path d="M80.5,68.5Q71,87,50.5,86Q30,85,16.5,67.5Q3,50,17,33.5Q31,17,52,14Q73,11,81.5,30.5Q90,50,80.5,68.5Z" stroke="none" stroke-width="0" fill="#bdbdc1"/><path d="M76.5,64Q66,78,49,79.5Q32,81,18.5,65.5Q5,50,18,33Q31,16,51.5,13.5Q72,11,79.5,30.5Q87,50,76.5,64Z" stroke="none" stroke-width="0" fill="#adadb2"/><path d="M80,66Q68,82,48,84.5Q28,87,15.5,68.5Q3,50,18.5,36Q34,22,53,17Q72,12,82,31Q92,50,80,66Z" stroke="none" stroke-width="0" fill="#9d9da3"/><path d="M77.5,70.5Q74,91,52,88Q30,85,23.5,67.5Q17,50,24.5,34.5Q32,19,49.5,19.5Q67,20,74,35Q81,50,77.5,70.5Z" stroke="none" stroke-width="0" fill="#8d8d94"/><path d="M77.5,64Q66,78,47.5,82.5Q29,87,20.5,68.5Q12,50,20.5,31.5Q29,13,47.5,17.5Q66,22,77.5,36Q89,50,77.5,64Z" stroke="none" stroke-width="0" fill="#7d7d85"/></svg>