<svg id="visual" viewBox="0 0 1920 1080" width="1920" height="1080" xmlns="http://www.w3.org/2000/svg" xmlns:xlink="http://www.w3.org/1999/xlink" version="1.1"><rect x="0" y="0" width="1920" height="1080" fill="#000000"></rect><path d="M619 0L627 25.7C635 51.3 651 102.7 609.2 154.2C567.3 205.7 467.7 257.3 425.3 308.8C383 360.3 398 411.7 385.5 463C373 514.3 333 565.7 353.3 617C373.7 668.3 454.3 719.7 450.7 771.2C447 822.7 359 874.3 377.3 925.8C395.7 977.3 520.3 1028.7 582.7 1054.3L645 1080L0 1080L0 1054.3C0 1028.7 0 977.3 0 925.8C0 874.3 0 822.7 0 771.2C0 719.7 0 668.3 0 617C0 565.7 0 514.3 0 463C0 411.7 0 360.3 0 308.8C0 257.3 0 205.7 0 154.2C0 102.7 0 51.3 0 25.7L0 0Z" fill="#A8A89E" stroke-linecap="round" stroke-linejoin="miter"></path></svg>